HIERARCHY
ROOT Hips
{
	OFFSET -3.958830 18.904000 13.208200
	CHANNELS 6 Xposition Yposition Zposition Zrotation Yrotation Xrotation 
	JOINT LHipJoint
	{
		OFFSET 0.000000 0.000000 0.000000
		CHANNELS 3 Zrotation Yrotation Xrotation
		JOINT LeftUpLeg
		{
			OFFSET 1.800000 -1.400000 0.085000
			CHANNELS 3 Zrotation Yrotation Xrotation
			JOINT LeftLeg
			{
				OFFSET 2.215000 -6.000000 0.000000
				CHANNELS 3 Zrotation Yrotation Xrotation
				JOINT LeftFoot
				{
					OFFSET 2.500000 -6.900000 0.000000
					CHANNELS 3 Zrotation Yrotation Xrotation
					JOINT LeftToeBase
					{
						OFFSET 0.200000 -0.500000 1.950000
						CHANNELS 3 Zrotation Yrotation Xrotation
						End Site
						{
							OFFSET 0.000000 0.000000 0.000000
						}
					}
				}
			}
		}
	}
	JOINT RHipJoint
	{
		OFFSET 0.000000 0.000000 0.000000
		CHANNELS 3 Zrotation Yrotation Xrotation
		JOINT RightUpLeg
		{
			OFFSET -1.800000 -1.400000 0.085000
			CHANNELS 3 Zrotation Yrotation Xrotation
			JOINT RightLeg
			{
				OFFSET -2.215000 -6.000000 0.000000
				CHANNELS 3 Zrotation Yrotation Xrotation
				JOINT RightFoot
				{
					OFFSET -2.500000 -6.900000 0.000000
					CHANNELS 3 Zrotation Yrotation Xrotation
					JOINT RightToeBase
					{
						OFFSET -0.200000 -0.500000 1.950000
						CHANNELS 3 Zrotation Yrotation Xrotation
						End Site
						{
							OFFSET 0.000000 0.000000 0.000000
						}
					}
				}
			}
		}
	}
	JOINT LowerBack
	{
		OFFSET 0.000000 0.000000 0.000000
		CHANNELS 3 Zrotation Yrotation Xrotation
		JOINT Spine
		{
			OFFSET -0.087000 1.940000 -0.288900
			CHANNELS 3 Zrotation Yrotation Xrotation
			JOINT Spine1
			{
				OFFSET 0.000000 1.950000 0.060000
				CHANNELS 3 Zrotation Yrotation Xrotation
				JOINT Neck
				{
					OFFSET 0.000000 0.000000 0.000000
					CHANNELS 3 Zrotation Yrotation Xrotation
					JOINT Neck1
					{
						OFFSET 0.000000 1.600000 0.340000
						CHANNELS 3 Zrotation Yrotation Xrotation
						JOINT Head
						{
							OFFSET 0.000000 1.667000 -0.240000
							CHANNELS 3 Zrotation Yrotation Xrotation
							End Site
							{
								OFFSET 0.000000 0.000000 0.000000
							}
						}
					}
				}
				JOINT LeftShoulder
				{
					OFFSET 0.000000 0.000000 0.000000
					CHANNELS 3 Zrotation Yrotation Xrotation
					JOINT LeftArm
					{
						OFFSET 2.700000 1.550000 -0.730000
						CHANNELS 3 Zrotation Yrotation Xrotation
						JOINT LeftForeArm
						{
							OFFSET 5.450000 0.000000 0.000000
							CHANNELS 3 Zrotation Yrotation Xrotation
							JOINT LeftHand
							{
								OFFSET 3.450000 0.000000 0.000000
								CHANNELS 3 Zrotation Yrotation Xrotation
								JOINT LeftHandIndex1
								{
									OFFSET 0.750000 0.000000 0.000000
									CHANNELS 3 Zrotation Yrotation Xrotation
									End Site
									{
										OFFSET 0.000000 0.000000 0.000000
									}
								}
							}
						}
					}
				}
				JOINT RightShoulder
				{
					OFFSET 0.000000 0.000000 0.000000
					CHANNELS 3 Zrotation Yrotation Xrotation
					JOINT RightArm
					{
						OFFSET -2.700000 1.550000 -0.730000
						CHANNELS 3 Zrotation Yrotation Xrotation
						JOINT RightForeArm
						{
							OFFSET -5.450000 0.000000 0.000000
							CHANNELS 3 Zrotation Yrotation Xrotation
							JOINT RightHand
							{
								OFFSET -3.450000 0.000000 0.000000
								CHANNELS 3 Zrotation Yrotation Xrotation
								JOINT RightHandIndex1
								{
									OFFSET -0.750000 0.000000 0.000000
									CHANNELS 3 Zrotation Yrotation Xrotation
									End Site
									{
										OFFSET 0.000000 0.000000 0.000000
									}
								}
							}
						}
					}
				}
			}
		}
	}
}
MOTION
Frames: 8
Frame Time: 0.016667
0.727840 15.689700 -3.117130 2.591743 -19.165833 3.344875 -15.153443 13.248412 3.312205 3.334295 -4.570501 -21.341888 -9.080423 9.736637 30.734833 -0.033978 6.232787 2.348247 0.377500 0.253130 0.291220 18.322917 -9.720554 3.523904 -13.203167 3.730836 -38.208845 7.115399 -5.082501 19.697955 0.061812 -2.821788 3.241786 0.305730 0.179000 0.173300 -3.552381 -3.122717 -7.776408 9.923909 -5.767271 17.329911 -2.641818 -4.245265 3.067135 0.600439 -7.556931 -7.527799 -14.554409 9.533382 25.120380 -5.847620 7.391120 -9.050910 -24.738917 -9.172558 1.917010 -32.606581 -9.823583 -0.275238 -38.425385 -24.905863 6.567704 -3.864281 3.338453 0.150820 0.213870 -0.053290 0.147190 23.678129 13.348813 4.076138 28.511225 8.998546 -6.553460 36.381628 60.937806 17.296237 2.107964 -1.868049 -0.136940 0.168270 -0.068360 -0.151110 
0.740180 15.651170 -3.111350 2.231909 -18.581731 2.562818 -15.119197 13.184752 3.261349 4.011003 -4.491031 -20.570795 -9.687970 10.167152 31.195416 0.008930 6.431350 2.274545 0.379010 0.252270 0.299700 18.365178 -9.666137 3.660476 -15.337567 3.759779 -39.015880 9.331183 -6.531329 23.379477 -0.036330 -3.537336 2.966677 0.298280 0.159000 0.168060 -3.673885 -3.044587 -7.863617 11.140496 -6.335625 18.302758 -3.612236 -4.579083 2.402271 0.895218 -7.474826 -7.290371 -14.458472 9.686171 26.064272 -5.794260 7.524500 -9.288520 -27.132906 -9.432162 1.866599 -32.274270 -9.003003 -0.588051 -32.864454 -21.679531 4.483390 -3.836210 3.281010 0.170570 0.194620 -0.037710 0.140350 25.364358 13.331911 3.847223 29.450548 9.254605 -6.930709 34.236384 60.065033 15.863487 2.111566 -1.835801 -0.135020 0.166750 -0.069540 -0.157570 
0.745140 15.601630 -3.096840 1.769284 -16.902323 0.918966 -15.060305 13.160810 3.139109 4.645887 -4.237598 -19.030032 -9.600081 10.431761 31.924806 0.061374 6.615061 2.216919 0.360130 0.216770 0.305500 18.424704 -9.640189 3.846769 -18.142769 3.800773 -39.424231 11.901671 -8.884814 29.032794 -0.205462 -4.747991 2.520888 0.267030 0.137980 0.164110 -3.846718 -2.947200 -7.989115 12.899447 -7.339556 19.760570 -5.223798 -5.242160 0.995701 1.499915 -7.168965 -6.865454 -14.012348 9.841082 28.292580 -6.059760 7.875300 -8.561960 -31.919261 -9.790656 1.994704 -31.384653 -6.845596 -0.994953 -23.992271 -15.668762 1.736994 -3.787058 3.196625 0.193200 0.176750 -0.026970 0.127480 28.732713 13.210292 3.362736 30.311466 9.619907 -7.288125 31.232003 57.571173 13.651990 2.131484 -1.789950 -0.137780 0.150310 -0.066920 -0.169090 
0.745520 15.553730 -3.061950 1.537460 -14.988372 -1.254031 -14.995422 13.133814 3.027098 5.356630 -3.925980 -17.127989 -9.760532 10.959112 33.033440 0.154371 6.910095 2.116131 0.338460 0.177850 0.324320 18.483144 -9.679281 3.962839 -21.213441 3.578547 -38.571735 14.126146 -11.634300 34.613142 -0.431029 -6.084138 2.045247 0.223080 0.095840 0.160810 -4.023928 -2.770294 -8.129629 14.244535 -8.182968 20.993787 -7.482816 -5.871016 -0.323436 2.391615 -6.034425 -6.477798 -12.008698 9.797363 31.836462 -6.345030 8.541740 -7.932100 -36.677329 -9.920463 2.324241 -30.016877 -4.070808 -1.330038 -16.151565 -10.320586 0.165029 -3.725362 3.103721 0.229730 0.146890 0.002550 0.104760 31.433779 12.365445 2.913270 32.817426 9.455265 -7.653711 29.926210 55.496035 12.355453 2.163059 -1.738791 -0.133970 0.125930 -0.067430 -0.188210 
0.747900 15.523860 -3.026020 1.302068 -13.122873 -3.262278 -14.929791 13.081116 2.910652 5.772810 -3.630864 -15.857210 -9.242747 11.415018 34.895079 0.242845 7.227609 1.996023 0.331370 0.156340 0.352800 18.554011 -9.728210 4.042153 -23.811708 3.630892 -37.233821 15.671310 -14.534525 40.388640 -0.702600 -7.425943 1.583715 0.189350 0.041850 0.164980 -4.229689 -2.539101 -8.214988 16.056939 -8.659325 21.524645 -9.266441 -6.236722 -1.154850 3.022597 -5.300692 -6.013722 -10.703946 9.689784 35.454594 -7.213640 8.957950 -7.507440 -40.050292 -9.191199 2.507751 -29.577862 -1.506079 -1.551362 -10.356346 -7.152872 -0.430328 -3.693102 3.034394 0.262470 0.115420 0.037650 0.079220 33.215295 11.084032 2.335047 35.652403 9.649970 -7.812771 29.618296 54.906021 12.015360 2.189826 -1.706060 -0.118810 0.096480 -0.069100 -0.207810 
0.746390 15.497410 -2.987250 0.784860 -10.915255 -4.995741 -14.853982 13.001358 2.782619 6.334683 -3.383603 -15.429068 -8.051289 11.681749 37.228407 0.313383 7.527730 1.878967 0.339970 0.154950 0.378250 18.636506 -9.824071 4.054321 -26.109077 3.816564 -34.649474 17.583859 -17.742950 45.364002 -1.009909 -8.709098 1.169359 0.172690 -0.006780 0.166280 -4.473312 -2.229579 -8.217173 18.536822 -8.800935 21.213576 -10.616977 -6.371513 -1.316156 3.322514 -5.060461 -5.516293 -10.343873 9.142735 38.562264 -8.021450 8.270270 -7.281030 -41.974673 -7.993856 2.304322 -29.498793 0.461998 -1.687534 -8.211418 -5.428634 -0.615403 -3.655453 2.989756 0.286230 0.082390 0.069410 0.065600 34.212117 9.582666 2.014627 38.815243 9.625883 -8.076498 31.416733 58.699238 13.797093 2.203105 -1.722865 -0.099680 0.080640 -0.076870 -0.216160 
0.734600 15.486900 -2.948760 0.440927 -9.013155 -6.230924 -14.786978 12.960920 2.648430 6.834840 -2.937019 -15.019112 -6.845566 11.779406 38.800342 0.350543 7.713740 1.804122 0.335260 0.139140 0.391540 18.700160 -9.954268 4.015538 -27.617072 4.226962 -31.578628 19.251689 -20.288022 48.562772 -1.246420 -9.619160 0.887804 0.157490 -0.033640 0.170440 -4.673194 -1.935340 -8.152594 20.358417 -8.343073 19.985051 -11.167785 -6.214293 -1.047067 3.389518 -5.106246 -4.945083 -10.415275 8.958157 40.967083 -9.072660 7.921600 -6.496730 -42.794508 -6.314825 1.885143 -29.773980 2.207313 -1.664803 -7.150571 -3.887645 -0.729285 -3.655169 2.953099 0.291050 0.072080 0.078180 0.049330 34.684711 7.885305 1.538322 41.650026 10.031126 -7.922860 32.141229 61.760424 15.068749 2.210264 -1.736037 -0.089310 0.063030 -0.072710 -0.224270 
0.703720 15.482460 -2.902360 0.478288 -6.199121 -7.044530 -14.752665 12.937096 2.546790 6.733991 -2.700554 -14.992062 -5.275537 11.491056 40.191043 0.386381 7.791706 1.786987 0.309940 0.114000 0.362600 18.726799 -10.118914 3.908861 -28.791063 4.220981 -27.752083 20.919925 -22.470246 50.173099 -1.410534 -10.268650 0.706562 0.143640 -0.007800 0.169950 -4.775084 -1.706199 -8.079152 20.326866 -7.665565 18.113017 -10.678077 -6.216558 -0.223642 3.221694 -4.502546 -4.467197 -9.086396 8.143760 42.031182 -8.711700 7.104730 -4.871140 -42.077573 -4.792634 1.676216 -30.105636 4.211677 -1.906846 -8.203167 -3.792103 -0.767255 -3.659893 2.968093 0.256260 0.092370 0.052370 0.051650 34.435870 6.021474 0.967884 44.041391 10.491155 -7.229700 34.320844 65.232664 17.399605 2.224496 -1.768169 -0.085810 0.057380 -0.063550 -0.207410 
